# xmcd CD database file
# Copyright (C) 1993-1998 Ti Kan
#
# Track frame offsets:
# 182
# 12682
# 25892
# 41532
# 53982
# 68865
# 82875
# 104485
# 118000
# 131257
# 144955
# 156392
# 171420
# 188032
#
# Disc length: 2762 seconds
#
# Revision: 1
# Processed by: cddbd v1.4b41PL1 Copyright (c) Steve Scherf et al.
# Submitted via: NetCD 1.2
#
DISCID=bf0ac80e
DTITLE=Peter Green with Nigel Watson - The Robert Johnson Songbook
DYEAR=1900
DGENRE=
TTITLE0=When You Got A Good Friend
TTITLE1=32-20 Blues
TTITLE2=Phonograph Blues
TTITLE3=Last Fair Deal Gone Down
TTITLE4=Stop Breakin'n Down Blues
TTITLE5=Walkin' Blues
TTITLE6=Love In Vain Blues
TTITLE7=Ramblin' On My Mind
TTITLE8=Stones In My Passway
TTITLE9=Me And The Devil Blues
TTITLE10=Honeymoon Blues
TTITLE11=I Believe I'll Dust My Broom
TTITLE12=If I Had Possession Over Judgement Day
TTITLE13=Sweet Home Chicago
EXTD=Artisan Record Label
EXTT0=
EXTT1=
EXTT2=
EXTT3=
EXTT4=
EXTT5=
EXTT6=
EXTT7=
EXTT8=
EXTT9=
EXTT10=
EXTT11=
EXTT12=
EXTT13=
PLAYORDER=
